<?xml version="1.0" encoding="utf-8"?>
<!-- Generator: Adobe Illustrator 22.0.0, SVG Export Plug-In . SVG Version: 6.00 Build 0)  -->
<svg version="1.1"
	 id="svg2" inkscape:version="0.48.4 r9939" sodipodi:docname="bitcoinjlogo.svg" xmlns:cc="http://creativecommons.org/ns#" xmlns:dc="http://purl.org/dc/elements/1.1/" xmlns:inkscape="http://www.inkscape.org/namespaces/inkscape" xmlns:rdf="http://www.w3.org/1999/02/22-rdf-syntax-ns#" xmlns:sodipodi="http://sodipodi.sourceforge.net/DTD/sodipodi-0.dtd" xmlns:svg="http://www.w3.org/2000/svg"
	 xmlns="http://www.w3.org/2000/svg" xmlns:xlink="http://www.w3.org/1999/xlink" x="0px" y="0px" viewBox="0 0 160 40"
	 style="enable-background:new 0 0 160 40;" xml:space="preserve">
<style type="text/css">
	.st0{fill:#505A76;}
</style>
<sodipodi:namedview  bordercolor="#666666" borderopacity="1" gridtolerance="10" guidetolerance="10" id="namedview39" inkscape:current-layer="svg2" inkscape:cx="36.565211" inkscape:cy="62.317449" inkscape:pageopacity="0" inkscape:pageshadow="2" inkscape:window-height="1026" inkscape:window-maximized="1" inkscape:window-width="1615" inkscape:window-x="65" inkscape:window-y="24" inkscape:zoom="5.4447222" objecttolerance="10" pagecolor="#ffffff" showgrid="false">
	</sodipodi:namedview>
<g>
	<g>
		<path class="st0" d="M6.7,3.8l0.1,11.7c0,0-0.5,0.1-1.3,0.3C5,16,4.1,16.4,4.1,16.4S3.9,11,3.9,9.2s0-4,0-4L6.7,3.8z"/>
	</g>
	<g>
		<path class="st0" d="M10.8,16.7c0,0-6.8,1.4-7.3,8S3.3,34,3.3,34l-2.6-1.3c0,0-0.3-2.2,0.1-6.5c0.2-2,0.6-3.9,1-4.9
			c1.5-3.6,3.7-4.1,5.7-4.5C8.8,16.5,10.8,16.7,10.8,16.7z"/>
	</g>
	<g>
		<path class="st0" d="M14.1,24l0.1,5.8l0.1,7.7l-3-1.5V24.8C11.3,24.9,13.8,24.5,14.1,24z"/>
	</g>
	<path class="st0" d="M7,4V3.7L4,2.2L1.2,3.8v12.1c0,0.4,0.1,1.4,0.5,2.8L1.8,19l0.3-0.4C3.2,17,4.9,16,6.8,15.7H7L7,4z M6.5,15.3
		C4.8,15.6,3.1,16.6,2,18c-0.3-1.1-0.4-1.9-0.4-2.2V4.2V4.1l2.3-1.3L6.5,4V15.3z"/>
	<path class="st0" d="M16.9,25.2c0-2.2-0.3-3.6-0.4-4l-0.1-0.6l-0.3,0.5c0,0.1-1,1.8-2.2,2.5s-2.6,0.8-2.6,0.8h-0.2v11v0.7l3.1,1.6
		h0.1l2.7-1.4L16.9,25.2z M11.5,24.9c0.4-0.1,1.6-0.3,2.6-0.8s1.7-1.6,2.1-2.2c0.1,0.6,0.2,1.8,0.2,3.3v10.7v0.2l-2.2,1.2l-2.8-1.4
		v-0.4L11.5,24.9z"/>
	<path class="st0" d="M11.3,16.6h-0.2c-0.2,0-1.5-0.3-3.1-0.1c-2.1,0.2-3.7,0.9-4.9,2.2c-2.7,2.9-2.7,8.7-2.7,11.1v3h0.4v-3
		c0-2.4,0-8,2.5-10.8c2.4-2.5,6.5-2.1,7.4-1.9v0.1c0,1.5-0.6,2.9-1.8,3.8l0,0c-1.3,1-2.1,2.6-2.1,4.3v0.2h0.4v-0.2
		c0-1.6,0.7-3,1.9-4h0.1c1.2-1,2-2.5,2-4.1L11.3,16.6z"/>
	<path class="st0" d="M14.9,8.1L14.9,8.1l-2.8,1.5l2.7,1.5l0,0v4.6c0,3.4-1.4,6.7-3.5,8.4c-1.3,1-2.7,1.4-4.2,1H7l-0.2,0.2l0.3,0.1
		c0.6,0.1,1.1,0.2,1.7,0.2c1.7,0,3.3-0.5,4.8-1.3h0.1l0,0c2.5-1.6,4-4.3,4-7.4v-1.6V9.7L14.9,8.1z"/>
</g>
<g>
	<g>
		<path class="st0" d="M39.9,31.3l-2-0.4c-2.5-0.5-4-2.8-4-6v-9.3c0-0.4,0.2-0.7,0.5-0.9l0.9-0.7h-5.4l0.9,0.7
			c0.3,0.2,0.5,0.5,0.5,0.9v9.7c0,3.9,2.5,6.4,6.5,6.4h2L39.9,31.3z"/>
		<path class="st0" d="M49.7,14H45l0.9,0.7c0.3,0.2,0.5,0.5,0.5,0.9v9.7c0,3.3-1.3,5.7-3.8,6.1v0.3c3.6-0.5,5.8-2.9,5.8-6.5v-9.6
			c0-0.4,0.2-0.7,0.5-0.9L49.7,14z"/>
	</g>
	<g>
		<path class="st0" d="M69,28.3c-0.8,0.9-1.2,1.2-3.1,1.7l-5.7,1.3h8.7l1.3-4.4L69,28.3z"/>
		<path class="st0" d="M55.1,14l1,0.7c0.4,0.3,0.7,0.7,0.7,1.2v13.6c0,0.5-0.3,0.9-0.6,1.2l-1,0.7h4.3V15.9c0-0.5,0.3-0.9,0.7-1.2
			l1-0.7H55.1z"/>
	</g>
	<g>
		<path class="st0" d="M103.6,29.4V14h-4.3l1,0.7c0.4,0.3,0.6,0.7,0.6,1.1v13.6c0,0.5-0.3,0.9-0.6,1.2l-1,0.7h5.9l-1-0.7
			C103.8,30.4,103.6,29.9,103.6,29.4z"/>
		<path class="st0" d="M115.3,30.6c-0.7-0.4-1.3-1-2-1.8c-0.1-0.1-2.5-3.1-2.5-3.1c-0.4-0.6-1.3-1.7-2.1-2.2
			c2.5-0.3,4.3-2.4,4.3-4.8c0-2.9-2.2-4.7-5.9-4.7h-2v0.8c0.5,0.1,1.2,0.2,1.9,0.3h0.1c2.8,0.4,3.3,1.5,3.4,3.5
			c0,0.6-0.1,1.2-0.2,1.6c-0.6,1.7-2.7,2.4-4,2.4h-1.8l1.2,0.7c0.7,0.4,1.3,1.1,1.7,1.6c0.1,0.1,0.5,0.7,1.1,1.5
			c0.9,1.2,1.5,2.2,1.7,2.4c1.2,1.5,2.9,2.3,4.9,2.5l2,0.2L115.3,30.6z"/>
	</g>
	<g>
		<path class="st0" d="M131.1,14h-4v0.8l4,0.2c4.4,0.3,6.6,2.9,6.6,7.7c0,4.7-2.1,7.1-6.6,7.7l-3.5,0.2v0.8h3.5
			c5.7,0,9.3-3.3,9.3-8.7C140.4,17.3,136.8,14,131.1,14z"/>
		<path class="st0" d="M121.6,14l1,0.7c0.4,0.3,0.6,0.7,0.6,1.2v13.5c0,0.5-0.2,0.9-0.6,1.2l-1,0.7h4.3V14H121.6z"/>
	</g>
	<g>
		<path class="st0" d="M80.8,29.2c-1.7-1.4-2.6-3.6-2.6-6.5s0.8-5.1,2.5-6.5c0.8-0.8,1.9-1.4,2.9-1.7l-0.2-0.7
			c-4.6,0.8-7.9,4.4-7.9,8.9s3.3,8.2,7.9,8.9l0.2-0.8C82.7,30.6,81.7,30,80.8,29.2L80.8,29.2z"/>
		<path class="st0" d="M87.3,13.7l-0.2,0.7c1.1,0.3,2.1,0.9,2.9,1.7c1.6,1.3,2.4,3.4,2.4,6.5s-0.8,5.3-2.5,6.6
			C89,30,88.1,30.6,87,30.8l0.2,0.8c4.7-0.8,8-4.4,8-8.9C95.1,18.2,91.9,14.5,87.3,13.7z"/>
	</g>
</g>
</svg>
