<?xml version="1.0" encoding="utf-8"?>
<!-- Generator: Adobe Illustrator 22.0.0, SVG Export Plug-In . SVG Version: 6.00 Build 0)  -->
<svg version="1.1"
	 id="svg2" inkscape:version="0.48.4 r9939" sodipodi:docname="ulordj.svg" xmlns:cc="http://creativecommons.org/ns#" xmlns:dc="http://purl.org/dc/elements/1.1/" xmlns:inkscape="http://www.inkscape.org/namespaces/inkscape" xmlns:rdf="http://www.w3.org/1999/02/22-rdf-syntax-ns#" xmlns:sodipodi="http://sodipodi.sourceforge.net/DTD/sodipodi-0.dtd" xmlns:svg="http://www.w3.org/2000/svg"
	 xmlns="http://www.w3.org/2000/svg" xmlns:xlink="http://www.w3.org/1999/xlink" x="0px" y="0px" viewBox="0 0 48 48"
	 style="enable-background:new 0 0 48 48;" xml:space="preserve">
<style type="text/css">
	.st0{fill:#505A76;}
</style>
<sodipodi:namedview  bordercolor="#666666" borderopacity="1" gridtolerance="10" guidetolerance="10" id="namedview23" inkscape:current-layer="svg2" inkscape:cx="-9.2492079" inkscape:cy="13.988792" inkscape:pageopacity="0" inkscape:pageshadow="2" inkscape:window-height="863" inkscape:window-maximized="0" inkscape:window-width="1268" inkscape:window-x="65" inkscape:window-y="24" inkscape:zoom="4.72" objecttolerance="10" pagecolor="#ffffff" showgrid="false">
	</sodipodi:namedview>
<g>
	<g>
		<path class="st0" d="M20.8,3l0.1,15.1c0,0-0.7,0.1-1.7,0.4c-0.6,0.2-1.7,0.8-1.7,0.8s-0.3-7-0.2-9.4s-0.1-5.1-0.1-5.1L20.8,3z"/>
	</g>
	<g>
		<path class="st0" d="M26.1,19.7c0,0-8.9,1.8-9.5,10.4s-0.2,12-0.2,12L13,40.4c0,0-0.3-2.8,0.1-8.4c0.2-2.6,0.7-5,1.3-6.4
			c1.9-4.6,4.8-5.3,7.4-5.8C23.6,19.4,26.1,19.7,26.1,19.7z"/>
	</g>
	<g>
		<path class="st0" d="M30.4,29.1l0.1,7.5l0.1,10l-3.9-1.9V30.1C26.7,30.2,30,29.8,30.4,29.1z"/>
	</g>
	<path class="st0" d="M21.1,3.2V2.8l-3.9-1.9l-3.6,2v15.7c0,0.5,0.2,1.9,0.7,3.6l0.2,0.6l0.3-0.5c1.4-2,3.6-3.4,6-3.7h0.3L21.1,3.2z
		 M20.5,17.9c-2.3,0.4-4.4,1.6-5.8,3.5c-0.4-1.4-0.5-2.5-0.5-2.8V3.4V3.2l3-1.7l3.3,1.6V17.9z"/>
	<path class="st0" d="M34.1,30.7c0-2.9-0.4-4.7-0.5-5.2l-0.2-0.8L33,25.5c-0.1,0.1-1.3,2.4-2.9,3.3c-1.6,0.8-3.4,1-3.4,1h-0.3V44V45
		l4.1,2.1l0.1,0.1l3.5-1.8L34.1,30.7z M27,30.2c0.6-0.1,2.1-0.3,3.4-1c1.2-0.7,2.2-2,2.8-2.8c0.1,0.8,0.3,2.3,0.3,4.3v13.9v0.3
		l-2.9,1.5L27,44.5V44V30.2z"/>
	<path class="st0" d="M26.7,19.6h-0.2c-0.3-0.1-2-0.3-4-0.1c-2.7,0.3-4.8,1.2-6.3,2.8c-3.5,3.7-3.5,11.2-3.4,14.4v3.9h0.6v-3.9
		c0-3.1,0-10.4,3.3-14c3.1-3.3,8.4-2.7,9.6-2.5v0.2c0,1.9-0.8,3.7-2.3,4.9h-0.1C22,26.5,21,28.5,21,30.8V31h0.6v-0.2
		c0-2,0.9-3.9,2.5-5.1h0.1c1.6-1.3,2.5-3.3,2.5-5.4V19.6z"/>
	<path class="st0" d="M31.4,8.5L31.4,8.5l-3.6,2l3.5,2l0,0v6c0,4.4-1.8,8.7-4.6,10.9c-1.7,1.3-3.5,1.8-5.4,1.3h-0.1L21,31l0.4,0.1
		c0.8,0.1,1.5,0.2,2.3,0.2c2.2,0,4.3-0.6,6.2-1.6H30l0,0c3.2-2.1,5.2-5.6,5.2-9.6V18v-7.4L31.4,8.5z"/>
</g>
</svg>
